#Comment line ignore any data following # character 
#Hierarchical Translation and Rotation (.htr) file 
[Header]	
#Header keywords are followed by a single value 
FileType HTR		#Single word string
DataType HTRS		#Translation followed by rotation and scale data
FileVersion 1		#integer
NumSegments 84		#integer
NumFrames 2		#integer
DataFrameRate 30		#integer, data frame rate in this file
EulerRotationOrder ZYX
CalibrationUnits mm
RotationUnits Degrees
GlobalAxisofGravity Y
BoneLengthAxis Y
ScaleFactor 1.00
[SegmentNames&Hierarchy]
#CHILD	PARENT
MASTER GLOBAL
root MASTER
chest root
L_mid_tent01 root
R_mid_tent01 root
spine01 root
Bip01_Neck chest
L_humerus chest
R_humerus chest
weapon_bone chest
Bip01_Head Bip01_Neck
eye_left_bone Bip01_Head
eye_right_bone Bip01_Head
L_forearm L_humerus
L_front_hand L_forearm
L_weapon_bone L_forearm
L_front_hand01_01 L_front_hand
L_front_hand02_01 L_front_hand
L_front_hand03_01 L_front_hand
L_front_hand01_02 L_front_hand01_01
L_front_hand02_02 L_front_hand02_01
L_front_hand03_02 L_front_hand03_01
R_forearm R_humerus
R_front_hand R_forearm
R_weapon_bone R_forearm
R_front_hand01_01 R_front_hand
R_front_hand02_01 R_front_hand
R_front_hand03_01 R_front_hand
R_front_hand01_02 R_front_hand01_01
R_front_hand02_02 R_front_hand02_01
R_front_hand03_02 R_front_hand03_01
null_rope01_connect L_mid_tent01
Rope1_Seg01 null_rope01_connect
Rope1_Seg02 Rope1_Seg01
Rope1_Seg03 Rope1_Seg02
Rope1_Seg04 Rope1_Seg03
Rope1_Seg05 Rope1_Seg04
Rope1_Seg06 Rope1_Seg05
Rope1_Seg07 Rope1_Seg06
Rope1_Seg09 Rope1_Seg07
L_mid_hand01 Rope1_Seg09
L_mid_hand02 Rope1_Seg09
L_mid_hand03 Rope1_Seg09
null_rope02_connect R_mid_tent01
Rope2_Seg01 null_rope02_connect
Rope2_Seg02 Rope2_Seg01
Rope2_Seg03 Rope2_Seg02
Rope2_Seg04 Rope2_Seg03
Rope2_Seg05 Rope2_Seg04
Rope2_Seg06 Rope2_Seg05
Rope2_Seg07 Rope2_Seg06
Rope2_Seg09 Rope2_Seg07
R_mid_hand01 Rope2_Seg09
R_mid_hand02 Rope2_Seg09
R_mid_hand03 Rope2_Seg09
spine02 spine01
spine03 spine02
pelvis spine03
null_rope03_connect pelvis
null_rope04_connect pelvis
Rope3_Seg01 null_rope03_connect
Rope3_Seg02 Rope3_Seg01
Rope3_Seg03 Rope3_Seg02
Rope3_Seg04 Rope3_Seg03
Rope3_Seg05 Rope3_Seg04
Rope3_Seg06 Rope3_Seg05
Rope3_Seg07 Rope3_Seg06
Rope3_Seg08 Rope3_Seg07
Rope3_Seg09 Rope3_Seg08
R_rear_hand01 Rope3_Seg09
R_rear_hand02 Rope3_Seg09
R_rear_hand03 Rope3_Seg09
Rope4_Seg01 null_rope04_connect
Rope4_Seg02 Rope4_Seg01
Rope4_Seg03 Rope4_Seg02
Rope4_Seg04 Rope4_Seg03
Rope4_Seg05 Rope4_Seg04
Rope4_Seg06 Rope4_Seg05
Rope4_Seg07 Rope4_Seg06
Rope4_Seg08 Rope4_Seg07
Rope4_Seg09 Rope4_Seg08
L_rear_hand01 Rope4_Seg09
L_rear_hand02 Rope4_Seg09
L_rear_hand03 Rope4_Seg09
[BasePosition]
#SegmentName Tx, Ty, Tz, Rx, Ry, Rz, BoneLength
MASTER 0.000000 0.000000 0.000000 -90.000000 0.000000 0.000000 10.000000 
root 0.000000 0.000000 0.000000 0.000000 0.000000 0.000000 10.000000 
chest 0.000000 0.000000 0.000000 0.000000 0.000000 0.000000 10.000000 
L_mid_tent01 0.000000 0.000000 0.000000 0.000000 0.000000 0.000000 10.000000 
R_mid_tent01 0.000000 0.000000 0.000000 0.000000 0.000000 0.000000 10.000000 
spine01 0.000000 0.000000 0.000000 0.000000 0.000000 0.000000 10.000000 
Bip01_Neck 0.000000 0.000000 0.000000 0.000000 0.000000 0.000000 10.000000 
L_humerus 0.000000 0.000000 0.000000 0.000000 0.000000 0.000000 10.000000 
R_humerus 0.000000 0.000000 0.000000 0.000000 0.000000 0.000000 10.000000 
weapon_bone 0.000000 0.000000 0.000000 0.000000 0.000000 0.000000 10.000000 
Bip01_Head 0.000000 0.000000 0.000000 0.000000 0.000000 0.000000 10.000000 
eye_left_bone 0.000000 0.000000 0.000000 0.000000 0.000000 0.000000 10.000000 
eye_right_bone 0.000000 0.000000 0.000000 0.000000 0.000000 0.000000 10.000000 
L_forearm 0.000000 0.000000 0.000000 0.000000 0.000000 0.000000 10.000000 
L_front_hand 0.000000 0.000000 0.000000 0.000000 0.000000 0.000000 10.000000 
L_weapon_bone 0.000000 0.000000 0.000000 0.000000 0.000000 0.000000 10.000000 
L_front_hand01_01 0.000000 0.000000 0.000000 0.000000 0.000000 0.000000 10.000000 
L_front_hand02_01 0.000000 0.000000 0.000000 0.000000 0.000000 0.000000 10.000000 
L_front_hand03_01 0.000000 0.000000 0.000000 0.000000 0.000000 0.000000 10.000000 
L_front_hand01_02 0.000000 0.000000 0.000000 0.000000 0.000000 0.000000 10.000000 
L_front_hand02_02 0.000000 0.000000 0.000000 0.000000 0.000000 0.000000 10.000000 
L_front_hand03_02 0.000000 0.000000 0.000000 0.000000 0.000000 0.000000 10.000000 
R_forearm 0.000000 0.000000 0.000000 0.000000 0.000000 0.000000 10.000000 
R_front_hand 0.000000 0.000000 0.000000 0.000000 0.000000 0.000000 10.000000 
R_weapon_bone 0.000000 0.000000 0.000000 0.000000 0.000000 0.000000 10.000000 
R_front_hand01_01 0.000000 0.000000 0.000000 0.000000 0.000000 0.000000 10.000000 
R_front_hand02_01 0.000000 0.000000 0.000000 0.000000 0.000000 0.000000 10.000000 
R_front_hand03_01 0.000000 0.000000 0.000000 0.000000 0.000000 0.000000 10.000000 
R_front_hand01_02 0.000000 0.000000 0.000000 0.000000 0.000000 0.000000 10.000000 
R_front_hand02_02 0.000000 0.000000 0.000000 0.000000 0.000000 0.000000 10.000000 
R_front_hand03_02 0.000000 0.000000 0.000000 0.000000 0.000000 0.000000 10.000000 
null_rope01_connect 0.000000 0.000000 0.000000 0.000000 0.000000 0.000000 10.000000 
Rope1_Seg01 0.000000 0.000000 0.000000 0.000000 0.000000 0.000000 10.000000 
Rope1_Seg02 0.000000 0.000000 0.000000 0.000000 0.000000 0.000000 10.000000 
Rope1_Seg03 0.000000 0.000000 0.000000 0.000000 0.000000 0.000000 10.000000 
Rope1_Seg04 0.000000 0.000000 0.000000 0.000000 0.000000 0.000000 10.000000 
Rope1_Seg05 0.000000 0.000000 0.000000 0.000000 0.000000 0.000000 10.000000 
Rope1_Seg06 0.000000 0.000000 0.000000 0.000000 0.000000 0.000000 10.000000 
Rope1_Seg07 0.000000 0.000000 0.000000 0.000000 0.000000 0.000000 10.000000 
Rope1_Seg09 0.000000 0.000000 0.000000 0.000000 0.000000 0.000000 10.000000 
L_mid_hand01 0.000000 0.000000 0.000000 0.000000 0.000000 0.000000 10.000000 
L_mid_hand02 0.000000 0.000000 0.000000 0.000000 0.000000 0.000000 10.000000 
L_mid_hand03 0.000000 0.000000 0.000000 0.000000 0.000000 0.000000 10.000000 
null_rope02_connect 0.000000 0.000000 0.000000 0.000000 0.000000 0.000000 10.000000 
Rope2_Seg01 0.000000 0.000000 0.000000 0.000000 0.000000 0.000000 10.000000 
Rope2_Seg02 0.000000 0.000000 0.000000 0.000000 0.000000 0.000000 10.000000 
Rope2_Seg03 0.000000 0.000000 0.000000 0.000000 0.000000 0.000000 10.000000 
Rope2_Seg04 0.000000 0.000000 0.000000 0.000000 0.000000 0.000000 10.000000 
Rope2_Seg05 0.000000 0.000000 0.000000 0.000000 0.000000 0.000000 10.000000 
Rope2_Seg06 0.000000 0.000000 0.000000 0.000000 0.000000 0.000000 10.000000 
Rope2_Seg07 0.000000 0.000000 0.000000 0.000000 0.000000 0.000000 10.000000 
Rope2_Seg09 0.000000 0.000000 0.000000 0.000000 0.000000 0.000000 10.000000 
R_mid_hand01 0.000000 0.000000 0.000000 0.000000 0.000000 0.000000 10.000000 
R_mid_hand02 0.000000 0.000000 0.000000 0.000000 0.000000 0.000000 10.000000 
R_mid_hand03 0.000000 0.000000 0.000000 0.000000 0.000000 0.000000 10.000000 
spine02 0.000000 0.000000 0.000000 0.000000 0.000000 0.000000 10.000000 
spine03 0.000000 0.000000 0.000000 0.000000 0.000000 0.000000 10.000000 
pelvis 0.000000 0.000000 0.000000 0.000000 0.000000 0.000000 10.000000 
null_rope03_connect 0.000000 0.000000 0.000000 0.000000 0.000000 0.000000 10.000000 
null_rope04_connect 0.000000 0.000000 0.000000 0.000000 0.000000 0.000000 10.000000 
Rope3_Seg01 0.000000 0.000000 0.000000 0.000000 0.000000 0.000000 10.000000 
Rope3_Seg02 0.000000 0.000000 0.000000 0.000000 0.000000 0.000000 10.000000 
Rope3_Seg03 0.000000 0.000000 0.000000 0.000000 0.000000 0.000000 10.000000 
Rope3_Seg04 0.000000 0.000000 0.000000 0.000000 0.000000 0.000000 10.000000 
Rope3_Seg05 0.000000 0.000000 0.000000 0.000000 0.000000 0.000000 10.000000 
Rope3_Seg06 0.000000 0.000000 0.000000 0.000000 0.000000 0.000000 10.000000 
Rope3_Seg07 0.000000 0.000000 0.000000 0.000000 0.000000 0.000000 10.000000 
Rope3_Seg08 0.000000 0.000000 0.000000 0.000000 0.000000 0.000000 10.000000 
Rope3_Seg09 0.000000 0.000000 0.000000 0.000000 0.000000 0.000000 10.000000 
R_rear_hand01 0.000000 0.000000 0.000000 0.000000 0.000000 0.000000 10.000000 
R_rear_hand02 0.000000 0.000000 0.000000 0.000000 0.000000 0.000000 10.000000 
R_rear_hand03 0.000000 0.000000 0.000000 0.000000 0.000000 0.000000 10.000000 
Rope4_Seg01 0.000000 0.000000 0.000000 0.000000 0.000000 0.000000 10.000000 
Rope4_Seg02 0.000000 0.000000 0.000000 0.000000 0.000000 0.000000 10.000000 
Rope4_Seg03 0.000000 0.000000 0.000000 0.000000 0.000000 0.000000 10.000000 
Rope4_Seg04 0.000000 0.000000 0.000000 0.000000 0.000000 0.000000 10.000000 
Rope4_Seg05 0.000000 0.000000 0.000000 0.000000 0.000000 0.000000 10.000000 
Rope4_Seg06 0.000000 0.000000 0.000000 0.000000 0.000000 0.000000 10.000000 
Rope4_Seg07 0.000000 0.000000 0.000000 0.000000 0.000000 0.000000 10.000000 
Rope4_Seg08 0.000000 0.000000 0.000000 0.000000 0.000000 0.000000 10.000000 
Rope4_Seg09 0.000000 0.000000 0.000000 0.000000 0.000000 0.000000 10.000000 
L_rear_hand01 0.000000 0.000000 0.000000 0.000000 0.000000 0.000000 10.000000 
L_rear_hand02 0.000000 0.000000 0.000000 0.000000 0.000000 0.000000 10.000000 
L_rear_hand03 0.000000 0.000000 0.000000 0.000000 0.000000 0.000000 10.000000 
#Beginning of Data. Separated by tabs
#Fr	Tx	Ty	Tz	Rx	Ry	Rz	SF
[MASTER]
4 581.979675 -472.925537 0.000000 0.000016 -0.002347 -90.787643 749.905945
5 739.895447 -643.515381 0.000000 0.000028 -0.002347 -91.362801 980.590332
[root]
4 -62.822117 81.005470 1146.583252 -81.074669 -6.611458 -179.726013 1151.156616
5 -62.822140 73.653595 1134.831787 -79.376060 -7.316635 -179.730972 1138.953369
[chest]
4 -84.512650 -34.090519 0.000000 -3.364604 1.194484 156.165405 91.129311
5 -84.512650 -34.090519 0.000000 -4.491834 1.907001 156.058228 91.129311
[L_mid_tent01]
4 23.228750 24.509907 -223.761200 -9.439424 13.485767 -4.940154 226.294907
5 23.228750 24.509907 -223.761200 -9.944358 15.231411 -7.409046 226.294907
[R_mid_tent01]
4 23.228794 24.509907 226.238495 -158.775772 -18.836382 -26.962831 228.744751
5 23.228794 24.509907 226.238495 -158.328629 -21.899351 -28.242527 228.744751
[spine01]
4 -0.361383 -0.195265 0.000000 0.001815 0.001488 11.320961 0.410763
5 -0.361383 -0.195265 0.000000 0.001815 0.001488 11.320963 0.410763
[Bip01_Neck]
4 165.484543 71.581718 0.000119 175.896118 1.177290 24.871185 180.302734
5 165.484543 71.581718 0.000119 175.896118 1.177290 24.871183 180.302734
[L_humerus]
4 -13.983130 -135.272980 -120.471481 148.377228 60.824482 -115.762375 181.680161
5 -13.983130 -135.272980 -120.471481 156.468704 46.566093 -110.408508 181.680161
[R_humerus]
4 -13.983309 -135.273102 125.287651 -161.713089 -53.841946 -102.716606 184.909012
5 -13.983309 -135.273102 125.287651 -163.613708 -38.472427 -102.442955 184.909012
[weapon_bone]
4 235.964890 -300.705902 0.000000 0.000000 -89.951546 -128.212341 382.234833
5 235.964890 -300.705902 0.000000 0.000000 -89.951546 -128.212341 382.234833
[Bip01_Head]
4 201.313797 211.516815 15.929725 -7.054972 10.083984 -68.974945 292.438660
5 201.313797 211.516800 15.929725 -10.332177 9.468450 -70.503555 292.438629
[eye_left_bone]
4 -24.626970 125.451866 -64.772606 0.000000 -90.000000 -99.840431 143.318359
5 -24.626970 125.451866 -64.772606 0.000000 -90.000000 -99.840431 143.318359
[eye_right_bone]
4 -24.626970 125.451866 64.327362 0.000000 -89.965736 80.156380 143.117676
5 -24.626970 125.451866 64.327362 0.000000 -89.965736 80.156380 143.117676
[L_forearm]
4 322.776093 0.000000 -0.000119 0.000357 -0.002320 -107.506004 322.776093
5 322.776093 0.000000 -0.000119 0.000357 -0.002320 -107.506004 322.776093
[L_front_hand]
4 241.149185 -0.042021 -3.300071 -179.431961 -2.195943 -5.942918 241.171753
5 241.149185 -0.042021 -3.300071 -179.431961 -2.195943 -5.942918 241.171753
[L_weapon_bone]
4 156.183838 0.000000 0.000000 0.000014 0.000007 0.000001 156.183838
5 156.183838 0.000000 0.000000 0.000014 0.000007 0.000001 156.183838
[L_front_hand01_01]
4 86.095154 20.947098 -0.655860 0.139491 -0.584553 24.181786 88.609184
5 86.095154 20.947098 -0.655860 0.139491 -0.584553 24.181786 88.609184
[L_front_hand02_01]
4 86.935165 -11.437475 24.513514 119.190460 -21.905655 -12.119137 91.046425
5 86.935165 -11.437475 24.513514 119.190460 -21.905655 -12.119137 91.046425
[L_front_hand03_01]
4 86.637497 -14.123976 -20.424902 -120.437630 20.554031 -14.327168 90.126129
5 86.637497 -14.123976 -20.424902 -120.437630 20.554031 -14.327168 90.126129
[L_front_hand01_02]
4 71.020905 -0.000179 0.000030 0.000334 -0.002323 -106.379684 71.020905
5 71.020905 -0.000179 0.000030 0.000334 -0.002323 -106.379684 71.020905
[L_front_hand02_02]
4 71.020927 -0.000119 0.000060 0.000334 -0.002323 -106.379684 71.020927
5 71.020927 -0.000119 0.000060 0.000334 -0.002323 -106.379684 71.020927
[L_front_hand03_02]
4 71.020905 -0.000060 0.000060 0.000334 -0.002323 -106.379684 71.020905
5 71.020905 -0.000060 0.000060 0.000334 -0.002323 -106.379684 71.020905
[R_forearm]
4 322.776428 -0.000060 0.000030 0.196737 0.083011 -114.368637 322.776428
5 322.776428 -0.000060 0.000030 0.196737 0.083011 -114.368637 322.776428
[R_front_hand]
4 238.847015 -0.006795 2.210259 -0.341870 1.692705 -0.151780 238.857239
5 238.847015 -0.006795 2.210259 -0.341870 1.692705 -0.151779 238.857239
[R_weapon_bone]
4 155.664093 0.002503 -0.000030 0.003487 0.001180 -90.988930 155.664078
5 155.664093 0.002503 -0.000030 0.003487 0.001180 -90.988930 155.664078
[R_front_hand01_01]
4 87.624611 14.231146 22.918642 -119.218056 -22.033409 12.303375 91.683487
5 87.624611 14.231146 22.918642 -119.218056 -22.033409 12.303375 91.683487
[R_front_hand02_01]
4 89.356956 14.367283 -19.491137 120.545532 20.947184 14.823009 92.579636
5 89.356956 14.367283 -19.491137 120.545532 20.947184 14.823009 92.579636
[R_front_hand03_01]
4 87.286232 -22.307278 -0.143439 -0.231628 -0.392922 -24.567768 90.091743
5 87.286232 -22.307278 -0.143439 -0.231628 -0.392922 -24.567768 90.091743
[R_front_hand01_02]
4 71.020905 0.000060 0.000119 0.002323 -0.000334 106.381714 71.020905
5 71.020905 0.000060 0.000119 0.002323 -0.000334 106.381714 71.020905
[R_front_hand02_02]
4 71.020844 -0.000030 -0.000119 0.002323 -0.000334 106.381714 71.020836
5 71.020844 -0.000030 -0.000119 0.002323 -0.000334 106.381714 71.020836
[R_front_hand03_02]
4 71.020905 0.000000 0.000030 0.002323 -0.000334 106.381714 71.020905
5 71.020905 0.000000 0.000030 0.002323 -0.000334 106.381714 71.020905
[null_rope01_connect]
4 328.732483 0.000000 -0.000238 82.031746 75.405396 1.366652 328.732483
5 328.732483 0.000000 -0.000238 75.512321 72.579590 -2.568139 328.732483
[Rope1_Seg01]
4 0.000032 0.000000 -0.000069 -6.913579 -11.233478 113.720810 0.000076
5 0.000037 0.000000 -0.000066 -6.038951 -10.966133 111.684509 0.000076
[Rope1_Seg02]
4 139.999863 -0.000179 0.000000 2.802410 1.331394 -8.706578 139.999863
5 139.999863 -0.000179 0.000000 2.349648 2.397406 -8.442426 139.999863
[Rope1_Seg03]
4 139.999924 0.000060 -0.000060 6.331549 1.287493 -12.654181 139.999924
5 139.999924 0.000060 -0.000060 5.786613 3.006173 -12.758236 139.999924
[Rope1_Seg04]
4 139.999924 -0.000060 -0.000119 42.790890 0.484466 -35.013618 139.999924
5 139.999924 -0.000060 -0.000119 47.503098 3.924098 -34.177654 139.999924
[Rope1_Seg05]
4 139.999832 0.000119 -0.000060 3.987958 -2.026129 -1.034041 139.999832
5 139.999832 0.000119 -0.000060 -11.182613 3.434538 3.523984 139.999832
[Rope1_Seg06]
4 139.999954 0.000119 -0.000060 -38.611855 26.276730 31.078266 139.999954
5 139.999954 0.000119 -0.000060 -36.241913 17.093540 30.805368 139.999954
[Rope1_Seg07]
4 139.999985 0.000060 0.000000 -5.814478 -0.604097 13.937363 139.999985
5 139.999985 0.000060 0.000000 -4.168975 -1.713761 9.895944 139.999985
[Rope1_Seg09]
4 121.602913 0.000119 -0.000089 -89.793175 -1.359789 0.847147 121.602913
5 121.602913 0.000119 -0.000089 -89.793175 -1.359789 0.847147 121.602913
[L_mid_hand01]
4 103.859421 1.038730 8.195221 106.855484 -31.239275 -9.461397 104.187431
5 103.859421 1.038730 8.195221 106.855484 -31.239275 -9.461397 104.187431
[L_mid_hand02]
4 105.572853 -4.139662 -10.864139 -142.331345 25.752670 -28.774628 106.211075
5 105.572853 -4.139662 -10.864139 -142.331345 25.752670 -28.774628 106.211075
[L_mid_hand03]
4 104.641464 17.579376 -3.913581 -16.122810 9.734291 34.223598 106.179977
5 104.641464 17.579376 -3.913581 -16.122810 9.734291 34.223598 106.179977
[null_rope02_connect]
4 328.732849 0.000179 -0.000119 120.370819 -57.862930 117.474144 328.732849
5 328.732849 0.000179 -0.000119 116.867096 -55.842957 118.892830 328.732849
[Rope2_Seg01]
4 -0.000110 -0.000137 -0.000137 36.300171 -18.732018 129.550690 0.000223
5 -0.000111 -0.000132 -0.000132 30.435572 -16.480339 133.628387 0.000218
[Rope2_Seg02]
4 139.999741 -0.000060 -0.000119 4.970510 -1.938884 -3.444747 139.999756
5 139.999741 -0.000060 -0.000119 5.493511 -2.265603 -3.336400 139.999756
[Rope2_Seg03]
4 140.000107 0.000030 0.000000 6.629590 -3.101543 -4.550077 140.000107
5 140.000107 0.000030 0.000000 7.086775 -3.555190 -4.309388 140.000107
[Rope2_Seg04]
4 139.999802 0.000000 -0.000060 9.157835 -5.578555 -6.359252 139.999802
5 139.999802 0.000000 -0.000060 10.067916 -6.951061 -6.303860 139.999802
[Rope2_Seg05]
4 139.999985 -0.000060 0.000119 20.116114 -23.471542 -16.494909 139.999985
5 139.999985 -0.000060 0.000119 17.503967 -23.322046 -13.234632 139.999985
[Rope2_Seg06]
4 139.999893 -0.000030 -0.000119 2.892015 -2.984857 -4.687359 139.999893
5 139.999893 -0.000030 -0.000119 0.323888 4.260116 -2.782825 139.999893
[Rope2_Seg07]
4 139.999893 0.000060 -0.000060 -22.872219 39.189220 1.975917 139.999893
5 139.999893 0.000060 -0.000060 -26.836245 36.719051 2.073649 139.999893
[Rope2_Seg09]
4 121.338966 0.000089 -0.000060 33.793236 -1.359788 -0.847141 121.338966
5 121.338966 0.000089 -0.000060 33.793236 -1.359788 -0.847141 121.338966
[R_mid_hand01]
4 104.680779 11.144459 -10.335981 -41.523792 25.424656 28.595957 105.778534
5 104.680779 11.144459 -10.335981 -41.523792 25.424656 28.595957 105.778534
[R_mid_hand02]
4 104.070427 2.443552 8.231699 72.847389 -32.746803 10.013901 104.424065
5 104.070427 2.443552 8.231699 72.847389 -32.746803 10.013901 104.424065
[R_mid_hand03]
4 106.028137 -11.221827 -5.996406 -167.901306 10.259192 -37.009720 106.788818
5 106.028137 -11.221827 -5.996406 -167.901306 10.259192 -37.009720 106.788818
[spine02]
4 129.756927 0.001550 0.000119 0.001147 -1.797838 -7.854275 129.756927
5 129.756927 0.001550 0.000119 0.001147 -1.797837 -7.854275 129.756927
[spine03]
4 79.115631 0.000000 -0.000119 1.459971 -2.848092 23.765963 79.115631
5 79.115631 0.000000 -0.000119 1.459971 -2.848092 23.765963 79.115631
[pelvis]
4 169.435242 0.051022 0.000000 -0.000005 0.000003 -4.322055 169.435257
5 169.435242 0.051022 0.000000 -0.000005 0.000003 -4.322055 169.435257
[null_rope03_connect]
4 -1.257226 -2.466202 137.391083 -22.384396 77.934875 -128.416687 137.418976
5 -1.257226 -2.466202 137.391083 -18.946543 76.501289 -124.145752 137.418976
[null_rope04_connect]
4 -1.259640 -2.480268 -137.844437 -22.384396 77.934875 -128.416687 137.872513
5 -1.259640 -2.480268 -137.844437 -18.946543 76.501289 -124.145752 137.872513
[Rope3_Seg01]
4 0.000032 0.000000 -0.000069 -131.282028 4.880853 79.608200 0.000076
5 0.000037 0.000000 -0.000066 -132.302795 8.817191 89.187469 0.000076
[Rope3_Seg02]
4 139.999924 -0.000119 0.000060 0.317394 -0.891940 -2.429404 139.999924
5 139.999924 -0.000119 0.000060 0.863152 2.951900 -0.935920 139.999924
[Rope3_Seg03]
4 139.999924 -0.000119 0.000119 0.320074 -1.063928 -2.855400 139.999924
5 139.999924 -0.000119 0.000119 1.036812 3.395579 -1.135371 139.999924
[Rope3_Seg04]
4 139.999924 0.000119 0.000000 0.462456 -0.606316 -3.849340 139.999924
5 139.999924 0.000119 0.000000 1.644924 5.564726 -1.443658 139.999924
[Rope3_Seg05]
4 139.999924 -0.000238 0.000060 0.825613 0.363991 -5.611493 139.999924
5 139.999924 -0.000238 0.000060 3.028075 8.653497 -2.031789 139.999924
[Rope3_Seg06]
4 139.999893 -0.000119 -0.000060 0.071895 -5.687858 -2.111487 139.999893
5 139.999893 -0.000119 -0.000060 -0.128181 -2.814437 -1.360642 139.999893
[Rope3_Seg07]
4 139.999771 0.000060 -0.000119 -0.037541 -9.842906 1.608320 139.999771
5 139.999771 0.000060 -0.000119 -2.350028 -13.702960 -0.204189 139.999771
[Rope3_Seg08]
4 139.999985 -0.000060 0.000000 0.632807 -5.861917 0.053453 139.999985
5 139.999985 -0.000060 0.000000 -0.203508 -7.547747 -0.872121 139.999985
[Rope3_Seg09]
4 90.185997 -0.000179 -0.000060 89.793228 -1.359877 -0.847183 90.185997
5 90.185997 -0.000179 -0.000060 89.793228 -1.359877 -0.847183 90.185997
[R_rear_hand01]
4 103.366196 -6.073594 -10.757982 -161.551193 16.666374 -30.088671 104.101845
5 103.366196 -6.073594 -10.757982 -161.551193 16.666374 -30.088671 104.101845
[R_rear_hand02]
4 100.509819 12.039542 -7.992327 -34.280552 19.289745 28.875523 101.543350
5 100.509819 12.039542 -7.992327 -34.280552 19.289745 28.875523 101.543350
[R_rear_hand03]
4 101.539970 5.215704 5.435467 83.366440 -30.933914 7.284830 101.819031
5 101.539970 5.215704 5.435467 83.366440 -30.933914 7.284830 101.819031
[Rope4_Seg01]
4 0.000018 0.000008 -0.000153 47.896240 -6.443617 58.820183 0.000154
5 0.000018 -0.000015 -0.000153 46.577084 -0.831434 80.556633 0.000154
[Rope4_Seg02]
4 139.999985 0.000060 0.000119 2.077314 8.617693 10.400416 139.999985
5 139.999985 0.000060 0.000119 -0.064087 -7.590785 2.261294 139.999985
[Rope4_Seg03]
4 139.999924 0.000000 -0.000238 0.540758 4.069646 6.100928 139.999924
5 139.999924 0.000000 -0.000238 0.316114 -5.087327 1.056960 139.999924
[Rope4_Seg04]
4 139.999985 0.000000 0.000119 0.087920 1.537624 4.212943 139.999985
5 139.999985 0.000000 0.000119 0.332913 -2.992548 0.576760 139.999985
[Rope4_Seg05]
4 139.999802 -0.000060 -0.000119 0.130915 2.810024 1.033896 139.999802
5 139.999802 -0.000060 -0.000119 0.012853 1.238092 0.120501 139.999802
[Rope4_Seg06]
4 139.999924 0.000000 0.000060 0.488608 5.235279 -0.936486 139.999924
5 139.999924 0.000000 0.000060 -0.170041 5.176343 -0.184249 139.999924
[Rope4_Seg07]
4 139.999802 0.000000 0.000000 1.343383 8.562719 -2.487029 139.999802
5 139.999802 0.000000 0.000000 0.129382 9.846336 -0.419059 139.999802
[Rope4_Seg08]
4 139.999924 0.000000 0.000119 -0.161926 6.408291 -1.240831 139.999924
5 139.999924 0.000000 0.000119 -1.021873 6.863816 -0.213219 139.999924
[Rope4_Seg09]
4 90.185791 0.000060 0.000060 -135.617828 2.228885 0.850567 90.185791
5 90.185791 0.000060 0.000060 -135.617828 2.228885 0.850567 90.185791
[L_rear_hand01]
4 101.696655 -8.392275 -7.654577 -34.454281 -18.946800 151.655121 102.329041
5 101.696655 -8.392275 -7.654577 -34.454281 -18.946800 151.655121 102.329041
[L_rear_hand02]
4 102.726799 -1.568258 5.773216 83.407906 30.330435 172.796509 102.900848
5 102.726799 -1.568258 5.773216 83.407906 30.330435 172.796509 102.900848
[L_rear_hand03]
4 104.552910 9.721220 -10.420293 -161.379868 -16.473232 -150.512238 105.519653
5 104.552910 9.721220 -10.420293 -161.379868 -16.473232 -150.512238 105.519653
